<?xml version="1.0" encoding="utf-8"?>
<!-- Generator: Adobe Illustrator 22.0.0, SVG Export Plug-In . SVG Version: 6.00 Build 0)  -->
<svg version="1.1" id="图层_1" xmlns="http://www.w3.org/2000/svg" xmlns:xlink="http://www.w3.org/1999/xlink" x="0px" y="0px"
	 viewBox="0 0 200 37" style="enable-background:new 0 0 200 37;" xml:space="preserve">
<style type="text/css">
	.st0{fill:#30C0F2;}
	.st1{fill:#EE5641;}
	.st2{fill:#96BC39;}
	.st3{fill:#FFCA4B;}
</style>
<g>
	<g>
		<path class="st0" d="M56.1,17.3H42.9c-1.2,0-2.2-1-2.2-2.2v0c0-1.2,1-2.2,2.2-2.2h13.3c1.2,0,2.2,1,2.2,2.2v0
			C58.3,16.3,57.4,17.3,56.1,17.3z"/>
	</g>
	<g>
		<path class="st1" d="M61,22.9H47.8c-1.2,0-2.2-1-2.2-2.2v0c0-1.2,1-2.2,2.2-2.2H61c1.2,0,2.2,1,2.2,2.2v0
			C63.2,21.9,62.2,22.9,61,22.9z"/>
	</g>
	<g>
		<g>
			<path class="st2" d="M51.3,28.5H38.1c-1.2,0-2.2-1-2.2-2.2v0c0-1.2,1-2.2,2.2-2.2h13.3c1.2,0,2.2,1,2.2,2.2v0
				C53.5,27.5,52.6,28.5,51.3,28.5z"/>
		</g>
	</g>
	<path class="st3" d="M20.1,29.8c-3.7-0.2-6.7-3.3-6.7-7.1c0-3.9,3.2-7.1,7.1-7.1c0.5,0,8.5,0.1,8.5,0.1c-0.1-0.3-0.1-0.5-0.2-0.9
		c0-0.2,0-0.4,0-0.6c0,0,0-0.1,0-0.1c0-0.2,0-0.3,0-0.4C29,9.9,32.1,7,35.9,7c2.6,0,5,1.5,6.2,3.6l0.5,0.8l5.5,0l-0.1-0.5
		c-1.4-5.2-6.3-9.1-12-9.1c-5.7,0-10.5,3.9-11.9,9.1c-1.1-0.3-2.3-0.5-3.5-0.5c-6.8,0-12.3,5.5-12.3,12.3c0,6.6,5.3,12.1,11.9,12.3
		v0h22.5c1.5,0,2.6-1.2,2.6-2.6v0c0-1.5-1.2-2.6-2.6-2.6C36.1,29.7,20.2,29.8,20.1,29.8z"/>
</g>
<g>
	<path class="st3" d="M134.2,32.7V11.3c0-0.8,0.7-1.5,1.5-1.5h0c0.8,0,1.5,0.7,1.5,1.5v21.4c0,0.8-0.7,1.5-1.5,1.5h0
		C134.9,34.2,134.2,33.5,134.2,32.7z"/>
	<path class="st2" d="M140.4,25c0-3.3,0.9-5.7,2.7-7.3c1.5-1.3,3.4-2,5.5-2c2.4,0,4.4,0.8,5.9,2.4c1.5,1.6,2.3,3.8,2.3,6.6
		c0,2.3-0.3,4.1-1,5.4c-0.7,1.3-1.7,2.3-3,3c-1.3,0.7-2.7,1.1-4.3,1.1c-2.5,0-4.4-0.8-6-2.4C141.2,30.2,140.4,28,140.4,25z
		 M143.5,25c0,2.3,0.5,3.9,1.5,5.1c1,1.1,2.2,1.7,3.7,1.7c1.5,0,2.7-0.6,3.7-1.7c1-1.1,1.5-2.8,1.5-5.1c0-2.2-0.5-3.9-1.5-5
		c-1-1.1-2.2-1.7-3.7-1.7c-1.5,0-2.7,0.6-3.7,1.7C144,21,143.5,22.7,143.5,25z"/>
	<path class="st1" d="M173.2,27.5L173.2,27.5c1,0.1,1.5,1.1,1.2,2c-0.4,1.2-1.1,2.2-2,2.9c-1.3,1.1-2.9,1.7-4.9,1.7
		c-2.4,0-4.4-0.8-5.8-2.4s-2.2-3.8-2.2-6.8c0-1.9,0.3-3.6,0.9-5c0.6-1.4,1.6-2.5,2.9-3.2c1.3-0.7,2.7-1.1,4.2-1.1
		c1.9,0,3.5,0.5,4.7,1.5c0.8,0.6,1.3,1.4,1.8,2.3c0.4,0.9-0.2,1.9-1.2,2.1h0c-0.7,0.1-1.3-0.3-1.5-0.9c-0.3-0.7-0.7-1.2-1.1-1.6
		c-0.7-0.6-1.5-0.9-2.5-0.9c-1.5,0-2.7,0.5-3.7,1.6c-0.9,1.1-1.4,2.8-1.4,5.1c0,2.4,0.5,4.1,1.4,5.2c0.9,1.1,2.1,1.6,3.6,1.6
		c1.2,0,2.2-0.4,2.9-1.1c0.6-0.5,1-1.2,1.2-2.1C171.9,27.9,172.5,27.4,173.2,27.5z"/>
	<path class="st3" d="M177.1,32.7V11.3c0-0.8,0.7-1.5,1.5-1.5l0,0c0.8,0,1.5,0.7,1.5,1.5v12.4l6.7-6.8c0.3-0.3,0.6-0.4,1-0.4h0
		c1.2,0,1.8,1.5,0.9,2.3l-4.4,4.2l6,9c0.6,0.9,0,2.1-1.1,2.1h-0.4c-0.5,0-0.9-0.2-1.1-0.6l-5.4-8.4l-2.1,2v5.5
		c0,0.8-0.7,1.5-1.5,1.5l0,0C177.8,34.2,177.1,33.5,177.1,32.7z"/>
	<g>
		<path class="st3" d="M89.3,23c0.7,0,1.2-0.5,1.2-1.2v-0.4c0-0.7-0.5-1.2-1.2-1.2h-8.9c-0.8,0-1.4,0.6-1.4,1.4v0
			c0,0.8,0.6,1.4,1.4,1.4H89.3z"/>
		<path class="st3" d="M90.6,31.3H77.1v-6.6V23v-2.9v-1v-6.4H90c0.8,0,1.4-0.6,1.4-1.4v0c0-0.8-0.6-1.4-1.4-1.4H76.8
			c-1.6,0-2.9,1.3-2.9,2.9v18.5c0,1.6,1.3,2.9,2.9,2.9h13.8c0.8,0,1.4-0.6,1.4-1.4v0C92,32,91.4,31.3,90.6,31.3z"/>
	</g>
	<path class="st0" d="M123.6,17.5c-2.1,0-4,1-5.3,2.6v-8.8c0-0.8-0.6-1.4-1.4-1.4s-1.4,0.6-1.4,1.4v21.5c0,0.8,0.6,1.4,1.4,1.4
		s1.4-0.6,1.4-1.4v-1.2c1.3,1.6,3.2,2.6,5.3,2.6c4.1,0,7.4-3.8,7.4-8.4S127.7,17.5,123.6,17.5z M123.6,31.3c-2.5,0-4.5-2.5-4.5-5.5
		s2-5.5,4.5-5.5c2.5,0,4.5,2.5,4.5,5.5S126.1,31.3,123.6,31.3z"/>
	<path class="st1" d="M95.6,32.2L95.6,32.2c0-0.6,0.2-1.2,0.6-1.7L107,18.2c-1.3,0.1-2.5,0.1-3.4,0.1h-6.1c-0.7,0-1.2-0.5-1.2-1.2v0
		c0-0.7,0.5-1.2,1.2-1.2h11.9c0.8,0,1.5,0.7,1.5,1.5v0c0,0.3-0.1,0.6-0.3,0.9l-9.4,11l-1.9,2.1c1.4-0.1,2.6-0.1,3.8-0.1h7.1
		c0.7,0,1.2,0.5,1.2,1.2v0.2c0,0.7-0.5,1.2-1.2,1.2H97.1C96.2,33.7,95.6,33,95.6,32.2z"/>
</g>
</svg>
