<?xml version="1.0" encoding="utf-8"?>
<!-- Generator: Adobe Illustrator 22.0.0, SVG Export Plug-In . SVG Version: 6.00 Build 0)  -->
<svg version="1.1" id="图层_1" xmlns="http://www.w3.org/2000/svg" xmlns:xlink="http://www.w3.org/1999/xlink" x="0px" y="0px"
	 viewBox="0 0 1041.1 1041.1" style="enable-background:new 0 0 1041.1 1041.1;" xml:space="preserve">
<style type="text/css">
	.st0{fill:#009FE8;}
	.st1{fill:#FFFFFF;}
</style>
<path class="st0" d="M520.1,1032.6L520.1,1032.6C237,1032.6,7.6,803.1,7.6,520.1v0C7.6,237,237,7.5,520.1,7.5h0
	c283.1,0,512.5,229.5,512.5,512.5v0C1032.6,803.1,803.1,1032.6,520.1,1032.6z"/>
<g>
	<path class="st1" d="M769.1,473.5l84.5-88.2c0,0-296.3-246.1-312.5-259c-16.2-12.9-48.2-27.1-74.9,0.7
		c-26.7,27.7-244.7,255.4-251.9,265.7c-7.1,10.3-26.3,43.9,4.7,70.6c31,26.6,313.2,258.9,313.2,258.9l87.8-91.6
		c0,0-239-195-248.9-203.6c-9.9-8.6-15.2-18.2,4.8-37.4c0,0,96.3-101.5,105.2-110.1c8.9-8.7,18.8-21.6,40.1-7.9L769.1,473.5z"/>
	<path class="st1" d="M271.1,564.6l-84.5,88.2c0,0,296.3,246.1,312.5,259c16.2,12.9,48.2,27.1,74.9-0.7
		c26.7-27.7,244.7-255.4,251.9-265.7c7.2-10.3,26.3-43.9-4.7-70.6C790.2,548.2,508,315.9,508,315.9l-87.8,91.6
		c0,0,239,195,248.8,203.6c9.9,8.6,15.2,18.2-4.8,37.4c0,0-96.3,101.5-105.2,110.1c-8.9,8.7-18.8,21.5-40.1,8L271.1,564.6z"/>
</g>
</svg>
