<?xml version="1.0" encoding="utf-8"?>
<!-- Generator: Adobe Illustrator 22.0.0, SVG Export Plug-In . SVG Version: 6.00 Build 0)  -->
<svg version="1.1" id="图层_1" xmlns="http://www.w3.org/2000/svg" xmlns:xlink="http://www.w3.org/1999/xlink" x="0px" y="0px"
	 viewBox="0 0 18 18" style="enable-background:new 0 0 18 18;" xml:space="preserve">
<style type="text/css">
	.st0{fill-rule:evenodd;clip-rule:evenodd;fill:#5A8A35;}
	.st1{fill-rule:evenodd;clip-rule:evenodd;fill:#008BD5;}
	.st2{fill-rule:evenodd;clip-rule:evenodd;fill:#0072AE;}
	.st3{fill-rule:evenodd;clip-rule:evenodd;fill:#FCCC00;}
	.st4{fill-rule:evenodd;clip-rule:evenodd;fill:#DAAE00;}
	.st5{fill-rule:evenodd;clip-rule:evenodd;fill:#EF8200;}
	.st6{fill-rule:evenodd;clip-rule:evenodd;fill:#D2720E;}
	.st7{fill-rule:evenodd;clip-rule:evenodd;fill:#D20546;}
	.st8{fill-rule:evenodd;clip-rule:evenodd;fill:#70A72E;}
</style>
<g>
	<path class="st0" d="M7.8,8.2l-7.6,9.3C0,17.3,0,17.1,0,16.9V1.8L7.8,8.2z"/>
	<path class="st0" d="M9.6,6.4L0.3,17.7C0.1,17.5,0,17.2,0,16.9V1.1C0,0.5,0.5,0,1,0h0.7L9.6,6.4z"/>
	<path class="st1" d="M0,3.8l9,9L3.8,18H1C0.5,18,0,17.5,0,16.9V3.8z"/>
	<path class="st2" d="M3.4,18l6.8-8.3l7.7,6.4v0.9c0,0.6-0.5,1.1-1.1,1.1H3.4z"/>
	<path class="st3" d="M3.8,18l9-9l5.2,5.2v2.8c0,0.6-0.5,1.1-1.1,1.1H3.8z"/>
	<path class="st4" d="M18,14.6L9.9,8l6.6-8h0.4C17.5,0,18,0.5,18,1.1V14.6z"/>
	<path class="st5" d="M18,14.2l-9-9L14.1,0h2.8C17.5,0,18,0.5,18,1.1V14.2z"/>
	<path class="st6" d="M14.7,0L8.3,7.8L0,1C0,0.4,0.5,0,1,0H14.7z"/>
	<rect x="6.3" y="6.3" transform="matrix(0.7071 -0.7071 0.7071 0.7071 -3.7379 8.9761)" class="st7" width="5.4" height="5.4"/>
	<path class="st8" d="M14.1,0l-9,9L0,3.8V1.1C0,0.5,0.5,0,1,0H14.1z"/>
	<path class="st8" d="M14.1,0L6.9,7.2L0.2,0.4C0.4,0.2,0.7,0,1,0H14.1z"/>
	<path class="st8" d="M14.1,0l-9,9L0,3.8V1.1C0,0.5,0.5,0,1,0H14.1z"/>
	<polygon class="st0" points="5.9,8.2 5.1,9 0,3.8 0,3.3 	"/>
</g>
</svg>
