<?xml version="1.0" encoding="utf-8"?>
<!-- Generator: Adobe Illustrator 22.0.0, SVG Export Plug-In . SVG Version: 6.00 Build 0)  -->
<svg version="1.1" id="图层_1" xmlns="http://www.w3.org/2000/svg" xmlns:xlink="http://www.w3.org/1999/xlink" x="0px" y="0px"
	 viewBox="0 0 595.3 111.9" style="enable-background:new 0 0 595.3 111.9;" xml:space="preserve">
<style type="text/css">
	.st0{fill-rule:evenodd;clip-rule:evenodd;fill:#2A7AAE;}
	.st1{fill:#FFFFFF;}
	.st2{fill:#5B8B35;}
	.st3{fill:#71A82E;}
	.st4{fill:#2A7AAE;}
</style>
<rect x="-398.3" y="222.5" class="st0" width="379.7" height="106.7"/>
<path class="st1" d="M198.7,106.9l-19.3-35.5h-13.1v35.5h-18.8V13h32.7c19.7,0,35.3,6.8,35.3,28.4c0,14.1-7.1,22.8-17.9,27
	l21.9,38.4H198.7z M166.3,56.5h12.2c12,0,18.6-5.1,18.6-15.1c0-10.1-6.6-13.6-18.6-13.6h-12.2V56.5z"/>
<path class="st1" d="M228,87.6c0-15.2,12.3-23.2,40.8-26.3c-0.3-7-3.3-12.3-12-12.3c-6.6,0-12.9,2.9-19.5,6.7l-6.7-12.3
	c8.4-5.2,18.5-9.4,29.7-9.4c18,0,27.3,10.8,27.3,31.3v41.5h-15.2l-1.4-7.6h-0.4c-6.2,5.3-13.3,9.4-21.4,9.4
	C236.3,108.7,228,99.7,228,87.6 M268.8,87.1V72.8c-17.2,2.3-23.1,7-23.1,13.3c0,5.6,3.9,8,9.4,8C260.4,94.1,264.4,91.5,268.8,87.1"
	/>
<path class="st1" d="M299.8,98.6l8.5-11.7c6.3,4.9,12.4,7.7,19,7.7c7.1,0,10.3-3,10.3-7.5c0-5.3-7.4-7.7-14.8-10.7
	c-9-3.4-19.4-8.9-19.4-20.7c0-12.8,10.4-21.8,26.4-21.8c10.4,0,18.3,4.3,24.2,8.8l-8.4,11.3c-5.1-3.6-10-6.1-15.3-6.1
	c-6.3,0-9.4,2.8-9.4,6.9c0,5.2,7,7.1,14.5,9.9c9.4,3.6,19.8,8.2,19.8,21.4c0,12.4-9.8,22.4-28.3,22.4
	C317.3,108.7,306.7,104.5,299.8,98.6"/>
<path class="st1" d="M370.8,13h30.8c20.8,0,36.8,7.2,36.8,29.4c0,21.4-16.1,31.1-36.3,31.1h-12.6v33.4h-18.8V13z M400.8,58.7
	c12.9,0,19.2-5.5,19.2-16.2c0-10.9-6.8-14.6-19.8-14.6h-10.7v30.8H400.8z"/>
<path class="st1" d="M445.1,87.6c0-15.2,12.3-23.2,40.8-26.3c-0.3-7-3.3-12.3-12-12.3c-6.6,0-12.9,2.9-19.5,6.7l-6.7-12.3
	c8.4-5.2,18.5-9.4,29.7-9.4c18,0,27.3,10.8,27.3,31.3v41.5h-15.2l-1.4-7.6h-0.4c-6.2,5.3-13.3,9.4-21.4,9.4
	C453.5,108.7,445.1,99.7,445.1,87.6 M486,87.1V72.8c-17.2,2.3-23.1,7-23.1,13.3c0,5.6,3.9,8,9.4,8C477.6,94.1,481.5,91.5,486,87.1"
	/>
<path class="st1" d="M519.6,71.5c0-23.2,14.5-37.4,29.8-37.4c8,0,12.9,3,18,7.7l-0.8-11.2v-25h18.6v101.2h-15.1l-1.5-7.4h-0.4
	c-5.2,5.1-12.3,9.1-19.7,9.1C531,108.7,519.6,94.7,519.6,71.5 M566.6,86V54.8c-4.3-3.9-8.8-5.3-13.2-5.3c-8,0-14.7,7.6-14.7,21.8
	c0,14.7,5.3,22.1,14.7,22.1C558.4,93.3,562.6,91.3,566.6,86"/>
<path class="st2" d="M11.7,104.8L11.7,104.8C11.7,104.8,11.7,104.8,11.7,104.8C11.7,104.8,11.7,104.8,11.7,104.8z"/>
<path class="st2" d="M13.5,11.6c-0.1,0-0.2,0.1-0.2,0.1c0,0,0,0,0,0C13.4,11.6,13.4,11.6,13.5,11.6z"/>
<path class="st2" d="M11.9,12.6C11.9,12.6,11.9,12.6,11.9,12.6c-0.2,0.2-0.4,0.4-0.6,0.6c0,0,0,0,0,0C11.5,13,11.7,12.8,11.9,12.6z"
	/>
<path class="st2" d="M10,16.8c0-1.3,0.4-2.4,1.1-3.4l0,0C10.4,14.4,10,15.6,10,16.8l0,3.7v7.7l0,0V16.8z"/>
<path class="st2" d="M10,34.2L10,34.2l0,66.5c0,0.4,0,0.7,0.1,1c-0.1-0.3-0.1-0.7-0.1-1V34.2z"/>
<path class="st2" d="M10.5,103c0.1,0.3,0.2,0.5,0.4,0.8l0,0C10.7,103.5,10.6,103.2,10.5,103C10.5,103,10.5,103,10.5,103z"/>
<path class="st2" d="M10.2,102c0.1,0.3,0.1,0.5,0.2,0.8c-0.1-0.3-0.2-0.6-0.3-0.9C10.1,101.9,10.2,102,10.2,102z"/>
<path class="st1" d="M12.9,11.9c-0.2,0.1-0.5,0.3-0.7,0.4c-0.1,0.1-0.2,0.2-0.3,0.3c-0.2,0.2-0.4,0.4-0.6,0.6
	c-0.1,0.1-0.1,0.1-0.2,0.2c-0.7,0.9-1.1,2.1-1.1,3.4v11.4l27.4,27.4l44.5-44.5H19.6h-3.9h0c-0.4,0-0.9,0.1-1.3,0.2
	c-0.1,0-0.3,0.1-0.4,0.1c-0.2,0.1-0.4,0.1-0.6,0.2c-0.1,0-0.2,0.1-0.2,0.1C13.1,11.7,13,11.8,12.9,11.9z"/>
<path class="st1" d="M33.3,106.4h66.3c3.1,0,5.7-2.6,5.7-5.7V88.6L78.2,61.5L33.3,106.4z"/>
<path class="st1" d="M10,34.2v66.5c0,0.4,0,0.7,0.1,1c0,0,0,0.1,0,0.1c0.1,0.3,0.2,0.6,0.3,0.9c0,0.1,0,0.1,0.1,0.2
	c0.1,0.3,0.3,0.5,0.4,0.8c0,0.1,0.1,0.1,0.1,0.2c0.1,0.2,0.2,0.3,0.4,0.4c0.1,0.1,0.2,0.3,0.3,0.4c0,0,0,0,0,0c1,1,2.4,1.6,4,1.6
	h11.6L54.8,79L10,34.2z"/>
<rect x="45.4" y="46.2" transform="matrix(0.7071 -0.7071 0.7071 0.7071 -24.4688 58.0248)" class="st1" width="24.7" height="24.6"/>
<path class="st1" d="M105.3,82.6V16.8c0-3.1-2.6-5.7-5.7-5.7H87.8l-27,27L105.3,82.6z"/>
<path class="st1" d="M12.9,11.9C12.9,11.9,12.9,11.9,12.9,11.9c-0.2,0.1-0.5,0.3-0.7,0.4c0,0,0,0,0,0C12.4,12.2,12.7,12,12.9,11.9z"
	/>
<path class="st3" d="M13.3,11.7C13.3,11.7,13.3,11.7,13.3,11.7c-0.1,0.1-0.3,0.1-0.4,0.2c0,0,0,0,0,0C13,11.8,13.1,11.7,13.3,11.7z"
	/>
<polygon class="st3" points="12.9,11.9 12.9,11.9 12.9,11.9 "/>
<path class="st3" d="M11.3,13.2C11.3,13.2,11.3,13.2,11.3,13.2c-0.1,0.1-0.1,0.1-0.2,0.2l0,0l0,0C11.2,13.4,11.3,13.3,11.3,13.2z"/>
<path class="st3" d="M12.2,12.3C12.2,12.3,12.2,12.3,12.2,12.3c-0.1,0.1-0.2,0.2-0.3,0.3c0,0,0,0,0,0C12,12.5,12.1,12.4,12.2,12.3z"
	/>
<polygon class="st3" points="12.2,12.3 12.2,12.3 12.2,12.3 "/>
<polygon class="st4" points="44.3,51.8 38.9,57.2 38.9,57.2 "/>
<polygon class="st4" points="10,31.4 10,31.1 10,28.2 10,28.2 10,34.2 10,34.2 "/>
<rect x="37.2" y="57.9" transform="matrix(0.7071 -0.7071 0.7071 0.7071 -29.7333 43.9912)" class="st4" width="2" height="0"/>
</svg>
