<?xml version="1.0" encoding="utf-8"?>
<!-- Generator: Adobe Illustrator 22.0.0, SVG Export Plug-In . SVG Version: 6.00 Build 0)  -->
<svg version="1.1" id="图层_1" xmlns="http://www.w3.org/2000/svg" xmlns:xlink="http://www.w3.org/1999/xlink" x="0px" y="0px"
	 viewBox="0 0 1986.9 566.9" style="enable-background:new 0 0 1986.9 566.9;" xml:space="preserve">
<style type="text/css">
	.st0{fill:#FFFFFF;}
</style>
<g id="XMLID_2_">
	<path id="XMLID_20_" class="st0" d="M671.7,421.3L671.7,421.3c10.7,0,19.4-8.7,19.4-19.4V300c0-3.5,2.8-6.3,6.3-6.3h91.2
		c9.1,0,16.4-7.3,16.4-16.4v0c0-9.1-7.3-16.4-16.4-16.4h-91.2c-3.5,0-6.3-2.8-6.3-6.3v-59c0-10.1,8.2-18.3,18.3-18.3h93.7
		c9.1,0,16.4-7.3,16.4-16.4v-0.4c0-9.1-7.3-16.4-16.4-16.4H687.6c-19.5,0-35.3,15.8-35.3,35.3v222.5
		C652.3,412.6,661,421.3,671.7,421.3z"/>
	<path id="XMLID_17_" class="st0" d="M987.3,232.9c-8.7-9.6-19-17-31-22.2c-12-5.2-25.1-7.8-39.2-7.8c-14.1,0-27.2,2.6-39.2,7.8
		c-12,5.2-22.3,12.6-31,22.2c-8.7,9.6-15.4,21.1-20.2,34.6c-4.8,13.5-7.2,28.3-7.2,44.6c0,16.5,2.4,31.5,7.2,44.8
		c4.8,13.3,11.5,24.8,20.2,34.4c8.7,9.6,19,17,31,22.2c12,5.2,25.1,7.8,39.2,7.8c14.1,0,27.2-2.6,39.2-7.8c12-5.2,22.3-12.6,31-22.2
		c8.7-9.6,15.4-21.1,20.2-34.4c4.8-13.3,7.2-28.3,7.2-44.8c0-16.3-2.4-31.1-7.2-44.6C1002.7,254,995.9,242.5,987.3,232.9z
		 M960.1,367.9c-10.5,13.7-24.9,20.6-43,20.6c-18.1,0-32.5-6.9-43-20.6c-10.5-13.7-15.8-32.3-15.8-55.8c0-23.5,5.3-42.1,15.8-55.8
		c10.5-13.7,24.9-20.6,43-20.6c18.1,0,32.5,6.9,43,20.6c10.5,13.7,15.8,32.3,15.8,55.8C975.9,335.5,970.6,354.1,960.1,367.9z"/>
	<path id="XMLID_14_" class="st0" d="M1550.2,217.7c-4.5-2.9-11.4-6-20.6-9.2c-9.2-3.2-19.8-4.8-31.8-4.8c-14.9,0-28.2,2.7-39.8,8
		c-11.6,5.3-21.4,12.8-29.4,22.4c-8,9.6-14.1,21.1-18.2,34.4c-4.1,13.3-6.2,28-6.2,44c0,16.8,2.5,31.9,7.4,45.4
		c4.9,13.5,11.9,24.9,21,34.2c9.1,9.3,20,16.5,32.8,21.6c12.8,5.1,27.2,7.6,43.2,7.6c17.3,0,32.7-1.2,46-3.6
		c7.6-1.4,14.4-2.7,20.4-4.1c7.3-1.6,12.4-8,12.4-15.5l0-273.4c0-10.3-8.3-18.6-18.6-18.6l0,0c-10.3,0-18.6,8.3-18.6,18.6V217.7z
		 M1550.2,379c0,3-2,5.6-5,6.2c-3,0.6-6.6,1.2-10.8,1.8c-6.8,0.9-15.3,1.4-25.4,1.4c-20,0-36-6.6-48-19.8c-12-13.2-18-31.9-18-56.2
		c0-10.7,1.1-20.7,3.2-30c2.1-9.3,5.6-17.4,10.4-24.2c4.8-6.8,11-12.1,18.6-16c7.6-3.9,16.7-5.8,27.4-5.8c10.1,0,19.5,1.7,28,5.2
		c4.6,1.9,8.5,3.7,12,5.7c4.8,2.7,7.6,8,7.6,13.6V379z"/>
	<path id="XMLID_13_" class="st0" d="M240.8,288.5c-7.3-6.7-16-12.4-26-17.2c-10-4.8-21-9.6-33-14.4c-8.5-3.2-16.3-6.4-23.4-9.6
		c-7.1-3.2-13.3-6.7-18.6-10.6c-5.3-3.9-9.5-8.3-12.4-13.4c-2.9-5.1-4.4-11.3-4.4-18.8c0-6.7,1.4-12.5,4.2-17.4
		c2.8-4.9,6.6-9,11.4-12.2c4.8-3.2,10.4-5.6,16.8-7.2c6.4-1.6,13.3-2.4,20.8-2.4c14.7,0,27.5,1.7,38.6,5c3.6,1.1,6.9,2.2,10,3.3
		c8.7,3.2,18.2-1.2,21.6-9.8c3.6-9.1-1.2-19.2-10.5-22.5c-4.1-1.4-8.7-2.8-13.9-4.2c-13.7-3.6-29-5.4-45.8-5.4
		c-29.1,0-51.9,6.8-68.4,20.4C91.3,165.7,83,184.6,83,208.9c0,11.7,1.9,21.7,5.8,30c3.9,8.3,9.1,15.4,15.8,21.4
		c6.7,6,14.5,11.2,23.6,15.6c9.1,4.4,18.7,8.3,28.8,11.8c8.8,3.2,17.1,6.4,25,9.6c7.9,3.2,14.9,7,21,11.4c6.1,4.4,11,9.6,14.6,15.6
		c3.6,6,5.4,13.3,5.4,21.8c0,27.7-20.3,41.6-60.8,41.6c-18.1,0-33.5-2.1-46-6.4c-4.1-1.4-7.7-2.7-11.1-4l0,0
		c-2.1-0.9-4.4-1.4-6.8-1.4c-9.6,0-17.3,7.6-17.3,17.1c0,7.8,5.4,14.3,12.6,16.3c4.1,1.6,8.6,3.1,13.8,4.6c7.2,2,15.4,3.7,24.6,5.2
		c9.2,1.5,19.3,2.2,30.2,2.2c32.3,0,57.3-6.5,75-19.6c17.7-13.1,26.6-31.7,26.6-56c0-13.1-2-24.2-6-33.4
		C253.8,303.1,248.1,295.1,240.8,288.5z"/>
	<path id="XMLID_12_" class="st0" d="M1920,227.4c0,8.8-7.3,16.1-16.2,16.1c-1.1,0-2.2-0.1-3.2-0.3c-6.6-1.2-14.9-1.9-24.8-1.9
		c-6.8,0-13.9,0.8-20.6,2.2c-0.2,0.1-0.6,0.1-0.8,0.2c-7.3,1.6-12.4,7.9-12.4,15.4v143.5c0,11.4-10.3,20.3-21.9,18.3
		c-9.1-1.6-15.3-10.3-15.3-19.5l0-165.8c0-8.1,5.2-15.4,13.1-17.7c5.9-1.7,12.5-3.3,19.7-4.9c13.1-2.8,27.8-4.1,44.1-4.1
		c3.1,0,6.8,0.1,11,0.6c4.1,0.4,8.2,0.9,12.2,1.6c0.8,0.1,1.6,0.2,2.3,0.4C1914.4,213,1920,219.6,1920,227.4z"/>
	<path id="XMLID_8_" class="st0" d="M1786.7,307c-0.2-34.6-7.8-60.3-22.4-77.4c-14.9-17.5-36.4-26.2-64.4-26.2
		c-12,0-23.7,2.2-35.3,6.7c-11.4,4.6-21.6,11.4-30.3,20.5c-8.8,9.1-15.9,20.5-21.3,34.1c-5.3,13.8-7.9,29.8-7.9,48.2
		c0,15.7,2,30.1,6.2,43.3c4.1,13.2,10.5,24.6,19,34.2c8.5,9.6,19.4,17.1,32.6,22.6c13.2,5.5,28.9,8.2,47,8.2c14.4,0,27.3-1.3,38.6-4
		c3.8-0.9,7.3-1.8,10.4-2.7c6.8-1.9,11.4-8.2,11.4-15.1c0-0.9-0.1-1.8-0.2-2.7c-1.5-9.2-10.5-15.1-19.6-12.6c-1.1,0.3-2.3,0.7-3.6,1
		c-9,2.2-20,3.4-33,3.4c-23.2,0-40.3-5.6-51.1-16.8c-9.7-10-15.8-24-18.1-42.1c-0.4-3.8,2.6-7.1,6.4-7.1h120.6
		c8.2,0,14.8-6.5,15-14.7v-0.3C1786.7,307.3,1786.7,307,1786.7,307z M1741.5,292.6h-89.3c-4.1,0-7.1-3.8-6.2-7.8
		c0.9-4.6,2.1-9,3.7-13.4c2.6-6.9,6.2-13.1,10.6-18.4c4.6-5.4,10.1-9.7,16.6-13c6.6-3.4,14.1-5,22.6-5c15.2,0,27.1,5.4,35.8,16.2
		c7.5,9.3,11.6,20.9,12.4,34.8C1748,289.5,1745,292.6,1741.5,292.6z"/>
	<path id="XMLID_7_" class="st0" d="M430.5,208.9L430.5,208.9c-10.5,0-18.9,8.5-18.9,18.9v121.4c0,19.1-15.7,34.8-34.8,34.8h-3.5
		c-29.9,0-54.3-24.4-54.3-54.3V227.8c0-10.5-8.5-18.9-18.9-18.9h0c-10.4,0-18.9,8.5-18.9,18.9v96.9c0,53.1,43.4,96.5,96.5,96.5h1
		c38.9,0,70.7-31.8,70.7-70.7V227.8C449.4,217.3,440.9,208.9,430.5,208.9z"/>
	<path id="XMLID_6_" class="st0" d="M485.3,421.3L485.3,421.3c10.5,0,18.9-8.5,18.9-18.9V280.9c0-19.1,15.7-34.8,34.8-34.8h3.5
		c29.9,0,54.3,24.4,54.3,54.3v101.9c0,10.5,8.5,18.9,18.9,18.9h0c10.4,0,18.9-8.5,18.9-18.9v-96.9c0-53.1-43.4-96.5-96.5-96.5h-1
		c-38.9,0-70.7,31.8-70.7,70.7v122.8C466.4,412.8,474.9,421.3,485.3,421.3z"/>
	<path id="XMLID_5_" class="st0" d="M1181.9,208.9L1181.9,208.9c-10.5,0-18.9,8.5-18.9,18.9v121.4c0,19.1-15.7,34.8-34.8,34.8h-3.5
		c-29.9,0-54.3-24.4-54.3-54.3V227.8c0-10.5-8.5-18.9-18.9-18.9l0,0c-10.4,0-18.9,8.5-18.9,18.9v96.9c0,53.1,43.4,96.5,96.5,96.5h1
		c38.9,0,70.7-31.8,70.7-70.7V227.8C1200.8,217.3,1192.3,208.9,1181.9,208.9z"/>
	<path id="XMLID_4_" class="st0" d="M1236.5,420.6L1236.5,420.6c10.5,0,18.9-8.5,18.9-18.9V280.2c0-19.1,15.7-34.8,34.8-34.8h3.5
		c29.9,0,54.3,24.4,54.3,54.3v101.9c0,10.5,8.5,18.9,18.9,18.9h0c10.4,0,18.9-8.5,18.9-18.9v-96.9c0-53.1-43.4-96.5-96.5-96.5h-1
		c-38.9,0-70.7,31.8-70.7,70.7v122.8C1217.6,412.1,1226.1,420.6,1236.5,420.6z"/>
</g>
</svg>
